<?xml version="1.0" encoding="UTF-8" standalone="no" ?>
<svg xmlns="http://www.w3.org/2000/svg" version="1.1" viewBox="88 388 247 247" xml:space="preserve">
<g transform="matrix(1.0811751570585357 0 0 1.0811751570585357 210.83815789473687 511.4473684210527)">
<g style="" paint-order="stroke">
  <g transform="matrix(0.8503130630342405 0 0 0.8503130630342406 -0.0001805539354791108 -60.33546778835273)">
    <path style="stroke:none;fill:rgb(51,124,4);fill-rule:nonzero;" transform="translate(-108.54,-37.59)" d="M 126.61 24.96 C 126.34 33.93 124.5 54.73 113.79 74.29 C 112.99 75.76 110.77 75.29 110.62 73.63 C 110.62 73.63 114.12 55.84 108.54 43.83 C 102.96 55.84 106.46 73.63 106.46 73.63 C 106.31 75.29 104.09 75.76 103.29 74.29 C 92.59 54.74 90.74 33.93 90.47 24.96 C 90.41 23.05 92.26 21.65 94.09 22.23 C 99.57 23.96 103.18 20.09 105.43 15.79 C 103.79 13.7 102.06 10.82 101.8 7.74 C 101.67 6.21 102.03 4.81 102.65 3.59 C 105.06 -1.19 112.03 -1.19 114.43 3.59 C 115.05 4.82 115.41 6.21 115.28 7.74 C 115.02 10.82 113.29 13.7 111.65 15.79 C 113.89 20.08 117.5 23.95 122.99 22.23 C 124.82 21.66 126.66 23.05 126.61 24.96 Z"/>
  </g>
  <g transform="matrix(0.8503130630342405 0 0 0.8503130630342406 0.00018 60.33546778835273)">
    <path style="stroke:none;fill:rgb(51,124,4);fill-rule:nonzero;" transform="translate(-108.54,-179.50)" d="M 113.79 142.8 C 124.49 162.35 126.34 183.16 126.61 192.13 C 126.67 194.04 124.82 195.44 122.99 194.86 C 117.51 193.13 113.9 197 111.65 201.3 C 113.29 203.39 115.02 206.27 115.28 209.35 C 115.41 210.88 115.05 212.28 114.43 213.5 C 112.02 218.28 105.05 218.28 102.65 213.5 C 102.03 212.27 101.67 210.88 101.8 209.35 C 102.06 206.27 103.79 203.39 105.43 201.3 C 103.19 197.01 99.58 193.14 94.09 194.86 C 92.26 195.43 90.42 194.04 90.47 192.13 C 90.74 183.16 92.58 162.36 103.29 142.8 C 104.09 141.33 106.31 141.8 106.46 143.46 C 106.46 143.46 102.96 161.25 108.54 173.26 C 114.12 161.25 110.62 143.46 110.62 143.46 C 110.77 141.8 112.99 141.33 113.79 142.8 Z"/>
  </g>
  <g transform="matrix(0.8503130630342405 0 0 0.8503130630342406 42.16778192318776 -42.15077566192707)">
    <path style="stroke:none;fill:rgb(72,165,12);fill-rule:nonzero;" transform="translate(-158.13,-58.97)" d="M 129.06 80.61 C 135.32 59.21 148.72 43.2 154.88 36.67 C 156.19 35.28 158.49 35.6 159.37 37.3 C 162.03 42.4 167.31 42.21 171.94 40.76 C 172.26 38.12 173.07 34.86 175.06 32.5 C 176.05 31.32 177.29 30.6 178.6 30.17 C 183.68 28.49 188.61 33.42 186.93 38.5 C 186.5 39.8 185.77 41.05 184.6 42.04 C 182.24 44.03 178.98 44.84 176.34 45.16 C 174.89 49.78 174.7 55.07 179.8 57.73 C 181.5 58.61 181.82 60.91 180.43 62.22 C 173.9 68.38 157.88 81.78 136.49 88.04 C 134.89 88.51 133.65 86.61 134.72 85.33 C 134.72 85.33 149.78 75.23 154.32 62.79 C 141.88 67.34 131.78 82.39 131.78 82.39 C 130.5 83.46 128.6 82.22 129.07 80.62 Z"/>
  </g>
  <g transform="matrix(0.8503130630342405 0 0 0.8503130630342406 -42.15927879255753 42.15077566192713)">
    <path style="stroke:none;fill:rgb(72,165,12);fill-rule:nonzero;" transform="translate(-58.96,-158.12)" d="M 88.03 136.48 C 81.77 157.88 68.37 173.89 62.21 180.42 C 60.9 181.81 58.6 181.49 57.72 179.79 C 55.06 174.69 49.78 174.88 45.15 176.33 C 44.83 178.97 44.02 182.23 42.03 184.59 C 41.04 185.77 39.79 186.49 38.49 186.92 C 33.41 188.6 28.48 183.67 30.16 178.59 C 30.59 177.29 31.32 176.04 32.49 175.05 C 34.85 173.06 38.11 172.25 40.75 171.93 C 42.2 167.31 42.39 162.02 37.29 159.36 C 35.59 158.48 35.27 156.18 36.66 154.87 C 43.19 148.71 59.21 135.31 80.6 129.05 C 82.2 128.58 83.44 130.48 82.37 131.76 C 82.37 131.76 67.31 141.86 62.77 154.3 C 75.21 149.75 85.31 134.7 85.31 134.7 C 86.59 133.63 88.49 134.87 88.02 136.47 Z"/>
  </g>
  <g transform="matrix(0.8503130630342405 0 0 0.8503130630342406 60.33971935366787 0.004)">
    <path style="stroke:none;fill:rgb(51,124,4);fill-rule:nonzero;" transform="translate(-179.50,-108.55)" d="M 213.5 114.44 C 212.27 115.06 210.88 115.42 209.35 115.29 C 206.27 115.03 203.39 113.3 201.3 111.66 C 197.01 113.9 193.14 117.51 194.86 123 C 195.43 124.83 194.04 126.67 192.13 126.62 C 183.16 126.35 162.36 124.51 142.8 113.8 C 141.33 113 141.8 110.78 143.46 110.63 C 143.46 110.63 161.25 114.13 173.26 108.55 C 161.25 102.97 143.46 106.47 143.46 106.47 C 141.8 106.32 141.33 104.1 142.8 103.3 C 162.35 92.6 183.16 90.75 192.13 90.48 C 194.04 90.42 195.44 92.27 194.86 94.1 C 193.13 99.58 197 103.19 201.3 105.44 C 203.39 103.8 206.27 102.07 209.35 101.81 C 210.88 101.68 212.28 102.04 213.5 102.66 C 218.28 105.07 218.28 112.04 213.5 114.44 Z"/>
  </g>
  <g transform="matrix(0.8503130630342405 0 0 0.8503130630342406 -60.33971935366793 -0.004)">
    <path style="stroke:none;fill:rgb(51,124,4);fill-rule:nonzero;" transform="translate(-37.58,-108.54)" d="M 74.28 113.79 C 54.73 124.49 33.92 126.34 24.95 126.61 C 23.04 126.67 21.64 124.82 22.22 122.99 C 23.95 117.51 20.08 113.9 15.78 111.65 C 13.69 113.29 10.81 115.02 7.73 115.28 C 6.2 115.41 4.8 115.05 3.58 114.43 C -1.2 112.02 -1.2 105.05 3.58 102.65 C 4.81 102.03 6.2 101.67 7.73 101.8 C 10.81 102.06 13.69 103.79 15.78 105.43 C 20.07 103.19 23.94 99.58 22.22 94.09 C 21.65 92.26 23.04 90.42 24.95 90.47 C 33.92 90.74 54.72 92.58 74.28 103.29 C 75.75 104.09 75.28 106.31 73.62 106.46 C 73.62 106.46 55.83 102.96 43.82 108.54 C 55.83 114.12 73.62 110.62 73.62 110.62 C 75.28 110.77 75.75 112.99 74.28 113.79 Z"/>
  </g>
  <g transform="matrix(0.8503130630342405 0 0 0.8503130630342406 42.16353035787262 42.163530357872645)">
    <path style="stroke:none;fill:rgb(72,165,12);fill-rule:nonzero;" transform="translate(-158.13,-158.13)" d="M 186.93 178.6 C 188.61 183.68 183.68 188.61 178.6 186.93 C 177.3 186.5 176.05 185.77 175.06 184.6 C 173.07 182.24 172.26 178.98 171.94 176.34 C 167.32 174.89 162.03 174.7 159.37 179.8 C 158.49 181.5 156.19 181.82 154.88 180.43 C 148.72 173.9 135.32 157.88 129.06 136.49 C 128.59 134.89 130.49 133.65 131.77 134.72 C 131.77 134.72 141.87 149.78 154.31 154.32 C 149.76 141.88 134.71 131.78 134.71 131.78 C 133.64 130.5 134.88 128.6 136.48 129.07 C 157.88 135.33 173.89 148.73 180.42 154.89 C 181.81 156.2 181.49 158.5 179.79 159.38 C 174.69 162.04 174.88 167.32 176.33 171.95 C 178.97 172.27 182.23 173.08 184.59 175.07 C 185.77 176.06 186.49 177.31 186.92 178.61 Z"/>
  </g>
  <g transform="matrix(0.8503130630342405 0 0 0.8503130630342406 -42.15077566192713 -42.159278792557444)">
    <path style="stroke:none;fill:rgb(72,165,12);fill-rule:nonzero;" transform="translate(-58.97,-58.96)" d="M 88.03 80.61 C 88.5 82.21 86.6 83.45 85.32 82.38 C 85.32 82.38 75.22 67.32 62.78 62.78 C 67.33 75.22 82.38 85.32 82.38 85.32 C 83.45 86.6 82.21 88.5 80.61 88.03 C 59.21 81.77 43.2 68.37 36.67 62.21 C 35.28 60.9 35.6 58.6 37.3 57.72 C 42.4 55.06 42.21 49.78 40.76 45.15 C 38.12 44.83 34.86 44.02 32.5 42.03 C 31.32 41.04 30.6 39.79 30.17 38.49 C 28.49 33.41 33.42 28.48 38.5 30.16 C 39.8 30.59 41.05 31.32 42.04 32.49 C 44.03 34.85 44.84 38.11 45.16 40.75 C 49.78 42.2 55.07 42.39 57.73 37.29 C 58.61 35.59 60.91 35.27 62.22 36.66 C 68.38 43.19 81.78 59.21 88.04 80.6 Z"/>
  </g>
  <g transform="matrix(0.8503130630342405 0 0 0.8503130630342406 0.051 0.004)">
    <path style="stroke:none;fill:rgb(234,173,24);fill-rule:nonzero;" transform="translate(-108.6,-108.55)" d="M 127.64 62.23 C 125.91 45.65 137.62 38.02 137.62 38.02 C 137.62 38.02 140.55 51.69 127.64 62.23 Z M 79.47 179.08 C 92.38 168.53 89.45 154.87 89.45 154.87 C 89.45 154.87 77.74 162.5 79.47 179.08 Z M 154.81 89.25 C 171.4 90.92 178.99 79.19 178.99 79.19 C 178.99 79.19 165.31 76.3 154.81 89.25 Z M 38.13 137.82 C 54.72 139.49 62.31 127.76 62.31 127.76 C 62.31 127.76 48.63 124.87 38.13 137.82 Z M 179.13 137.56 C 179.13 137.56 171.5 125.85 154.92 127.58 C 165.47 140.49 179.13 137.56 179.13 137.56 Z M 38.07 79.41 C 48.62 92.32 62.28 89.39 62.28 89.39 C 62.28 89.39 54.65 77.68 38.07 79.41 Z M 127.89 154.76 C 126.22 171.35 137.95 178.94 137.95 178.94 C 137.95 178.94 140.84 165.26 127.89 154.76 Z M 89.39 62.25 C 89.39 62.25 92.28 48.57 79.33 38.07 C 77.66 54.66 89.39 62.25 89.39 62.25 Z"/>
  </g>
  <g transform="matrix(0.8503130630342405 0 0 0.8503130630342406 0.0015 18.71824784743569)">
    <path style="stroke:none;fill:rgb(72,165,12);fill-rule:nonzero;" transform="translate(-108.54,-130.56)" d="M 142.11 111.45 C 144.35 121.32 140.66 131.89 133.63 139.13 C 123.7 149.64 107.06 152.66 93.99 146.57 C 85.12 142.62 77.92 134.51 75.4 125.17 C 74.18 120.69 73.93 115.93 74.98 111.44 C 75.98 115.69 77.46 119.73 79.66 123.4 C 89.93 141.24 113.88 146 129.69 132.57 C 136.06 127.33 140.32 119.57 142.12 111.43 Z"/>
  </g>
</g>
</g>
<g transform="matrix(1.9211538461538462 0 0 1.9211538461538462 211.89404792512966 511.12123695354245)">
<g style="" paint-order="stroke">
  <g transform="matrix(1 0 0 1 0 0)">
    <path style="stroke:none;fill:rgb(53,125,5);fill-rule:nonzero;" transform="translate(-6.71,7.825)" d="M 11.57 0 L 1.85 0 L 1.85 -15.65 L 5.38 -15.65 L 5.38 -2.98 L 11.57 -2.98 L 11.57 0 Z"/>
  </g>
</g>
</g>
</svg>
