<?xml version="1.0" encoding="UTF-8" standalone="no" ?>
<!DOCTYPE svg PUBLIC "-//W3C//DTD SVG 1.1//EN" "http://www.w3.org/Graphics/SVG/1.1/DTD/svg11.dtd">
<svg xmlns="http://www.w3.org/2000/svg" xmlns:xlink="http://www.w3.org/1999/xlink" version="1.1" viewBox="85 388 1460 248" xml:space="preserve">
<g transform="matrix(1.0811751570585357 0 0 1.0811751570585357 210.83815789473687 511.4473684210527)" id="logo-logo">
<g style="" paint-order="stroke">
  <g transform="matrix(0.8503130630342405 0 0 0.8503130630342406 -0.0001805539354791108 -60.33546778835273)">
    <path style="stroke:none;fill:rgb(51,124,4);fill-rule:nonzero;opacity:1;" transform="translate(-108.53978766181154,-37.58823076837977)" d="M 126.61 24.96 C 126.34 33.93 124.5 54.73 113.79 74.29 C 112.99 75.76 110.77 75.29 110.62 73.63 C 110.62 73.63 114.12 55.84 108.54 43.83 C 102.96 55.84 106.46 73.63 106.46 73.63 C 106.31 75.29 104.09 75.76 103.29 74.29 C 92.59 54.74 90.74 33.93 90.47 24.96 C 90.41 23.05 92.26 21.65 94.09 22.23 C 99.57 23.96 103.18 20.09 105.43 15.79 C 103.79 13.7 102.06 10.82 101.8 7.74 C 101.67 6.21 102.03 4.81 102.65 3.59 C 105.06 -1.19 112.03 -1.19 114.43 3.59 C 115.05 4.82 115.41 6.21 115.28 7.74 C 115.02 10.82 113.29 13.7 111.65 15.79 C 113.89 20.08 117.5 23.95 122.99 22.23 C 124.82 21.66 126.66 23.05 126.61 24.96 Z" stroke-linecap="round"/>
  </g>
  <g transform="matrix(0.8503130630342405 0 0 0.8503130630342406 0.00018055393536542397 60.33546778835273)">
    <path style="stroke:none;fill:rgb(51,124,4);fill-rule:nonzero;opacity:1;" transform="translate(-108.54021233818847,-179.50176923162024)" d="M 113.79 142.8 C 124.49 162.35 126.34 183.16 126.61 192.13 C 126.67 194.04 124.82 195.44 122.99 194.86 C 117.51 193.13 113.9 197 111.65 201.3 C 113.29 203.39 115.02 206.27 115.28 209.35 C 115.41 210.88 115.05 212.28 114.43 213.5 C 112.02 218.28 105.05 218.28 102.65 213.5 C 102.03 212.27 101.67 210.88 101.8 209.35 C 102.06 206.27 103.79 203.39 105.43 201.3 C 103.19 197.01 99.58 193.14 94.09 194.86 C 92.26 195.43 90.42 194.04 90.47 192.13 C 90.74 183.16 92.58 162.36 103.29 142.8 C 104.09 141.33 106.31 141.8 106.46 143.46 C 106.46 143.46 102.96 161.25 108.54 173.26 C 114.12 161.25 110.62 143.46 110.62 143.46 C 110.77 141.8 112.99 141.33 113.79 142.8 Z" stroke-linecap="round"/>
  </g>
  <g transform="matrix(0.8503130630342405 0 0 0.8503130630342406 42.16778192318776 -42.15077566192707)">
    <path style="stroke:none;fill:rgb(72,165,12);fill-rule:nonzero;opacity:1;" transform="translate(-158.13089041007686,-58.97410958992315)" d="M 129.06 80.61 C 135.32 59.21 148.72 43.2 154.88 36.67 C 156.19 35.28 158.49 35.6 159.37 37.3 C 162.03 42.4 167.31 42.21 171.94 40.76 C 172.26 38.12 173.07 34.86 175.06 32.5 C 176.05 31.32 177.29 30.6 178.6 30.17 C 183.68 28.49 188.61 33.42 186.93 38.5 C 186.5 39.8 185.77 41.05 184.6 42.04 C 182.24 44.03 178.98 44.84 176.34 45.16 C 174.89 49.78 174.7 55.07 179.8 57.73 C 181.5 58.61 181.82 60.91 180.43 62.22 C 173.9 68.38 157.88 81.78 136.49 88.04 C 134.89 88.51 133.65 86.61 134.72 85.33 C 134.72 85.33 149.78 75.23 154.32 62.79 C 141.88 67.34 131.78 82.39 131.78 82.39 C 130.5 83.46 128.6 82.22 129.07 80.62 Z" stroke-linecap="round"/>
  </g>
  <g transform="matrix(0.8503130630342405 0 0 0.8503130630342406 -42.15927879255753 42.15077566192713)">
    <path style="stroke:none;fill:rgb(72,165,12);fill-rule:nonzero;opacity:1;" transform="translate(-58.959109589923145,-158.11589041007687)" d="M 88.03 136.48 C 81.77 157.88 68.37 173.89 62.21 180.42 C 60.9 181.81 58.6 181.49 57.72 179.79 C 55.06 174.69 49.78 174.88 45.15 176.33 C 44.83 178.97 44.02 182.23 42.03 184.59 C 41.04 185.77 39.79 186.49 38.49 186.92 C 33.41 188.6 28.48 183.67 30.16 178.59 C 30.59 177.29 31.32 176.04 32.49 175.05 C 34.85 173.06 38.11 172.25 40.75 171.93 C 42.2 167.31 42.39 162.02 37.29 159.36 C 35.59 158.48 35.27 156.18 36.66 154.87 C 43.19 148.71 59.21 135.31 80.6 129.05 C 82.2 128.58 83.44 130.48 82.37 131.76 C 82.37 131.76 67.31 141.86 62.77 154.3 C 75.21 149.75 85.31 134.7 85.31 134.7 C 86.59 133.63 88.49 134.87 88.02 136.47 Z" stroke-linecap="round"/>
  </g>
  <g transform="matrix(0.8503130630342405 0 0 0.8503130630342406 60.339719353667874 0.004071011379778611)">
    <path style="stroke:none;fill:rgb(51,124,4);fill-rule:nonzero;opacity:1;" transform="translate(-179.50176923162024,-108.54978766181156)" d="M 213.5 114.44 C 212.27 115.06 210.88 115.42 209.35 115.29 C 206.27 115.03 203.39 113.3 201.3 111.66 C 197.01 113.9 193.14 117.51 194.86 123 C 195.43 124.83 194.04 126.67 192.13 126.62 C 183.16 126.35 162.36 124.51 142.8 113.8 C 141.33 113 141.8 110.78 143.46 110.63 C 143.46 110.63 161.25 114.13 173.26 108.55 C 161.25 102.97 143.46 106.47 143.46 106.47 C 141.8 106.32 141.33 104.1 142.8 103.3 C 162.35 92.6 183.16 90.75 192.13 90.48 C 194.04 90.42 195.44 92.27 194.86 94.1 C 193.13 99.58 197 103.19 201.3 105.44 C 203.39 103.8 206.27 102.07 209.35 101.81 C 210.88 101.68 212.28 102.04 213.5 102.66 C 218.28 105.07 218.28 112.04 213.5 114.44 Z" stroke-linecap="round"/>
  </g>
  <g transform="matrix(0.8503130630342405 0 0 0.8503130630342406 -60.33971935366793 -0.004071011379721767)">
    <path style="stroke:none;fill:rgb(51,124,4);fill-rule:nonzero;opacity:1;" transform="translate(-37.578230768379775,-108.54021233818847)" d="M 74.28 113.79 C 54.73 124.49 33.92 126.34 24.95 126.61 C 23.04 126.67 21.64 124.82 22.22 122.99 C 23.95 117.51 20.08 113.9 15.78 111.65 C 13.69 113.29 10.81 115.02 7.73 115.28 C 6.2 115.41 4.8 115.05 3.58 114.43 C -1.2 112.02 -1.2 105.05 3.58 102.65 C 4.81 102.03 6.2 101.67 7.73 101.8 C 10.81 102.06 13.69 103.79 15.78 105.43 C 20.07 103.19 23.94 99.58 22.22 94.09 C 21.65 92.26 23.04 90.42 24.95 90.47 C 33.92 90.74 54.72 92.58 74.28 103.29 C 75.75 104.09 75.28 106.31 73.62 106.46 C 73.62 106.46 55.83 102.96 43.82 108.54 C 55.83 114.12 73.62 110.62 73.62 110.62 C 75.28 110.77 75.75 112.99 74.28 113.79 Z" stroke-linecap="round"/>
  </g>
  <g transform="matrix(0.8503130630342405 0 0 0.8503130630342406 42.16353035787262 42.163530357872645)">
    <path style="stroke:none;fill:rgb(72,165,12);fill-rule:nonzero;opacity:1;" transform="translate(-158.12589041007686,-158.13089041007686)" d="M 186.93 178.6 C 188.61 183.68 183.68 188.61 178.6 186.93 C 177.3 186.5 176.05 185.77 175.06 184.6 C 173.07 182.24 172.26 178.98 171.94 176.34 C 167.32 174.89 162.03 174.7 159.37 179.8 C 158.49 181.5 156.19 181.82 154.88 180.43 C 148.72 173.9 135.32 157.88 129.06 136.49 C 128.59 134.89 130.49 133.65 131.77 134.72 C 131.77 134.72 141.87 149.78 154.31 154.32 C 149.76 141.88 134.71 131.78 134.71 131.78 C 133.64 130.5 134.88 128.6 136.48 129.07 C 157.88 135.33 173.89 148.73 180.42 154.89 C 181.81 156.2 181.49 158.5 179.79 159.38 C 174.69 162.04 174.88 167.32 176.33 171.95 C 178.97 172.27 182.23 173.08 184.59 175.07 C 185.77 176.06 186.49 177.31 186.92 178.61 Z" stroke-linecap="round"/>
  </g>
  <g transform="matrix(0.8503130630342405 0 0 0.8503130630342406 -42.15077566192713 -42.159278792557444)">
    <path style="stroke:none;fill:rgb(72,165,12);fill-rule:nonzero;opacity:1;" transform="translate(-58.969109589923164,-58.96410958992313)" d="M 88.03 80.61 C 88.5 82.21 86.6 83.45 85.32 82.38 C 85.32 82.38 75.22 67.32 62.78 62.78 C 67.33 75.22 82.38 85.32 82.38 85.32 C 83.45 86.6 82.21 88.5 80.61 88.03 C 59.21 81.77 43.2 68.37 36.67 62.21 C 35.28 60.9 35.6 58.6 37.3 57.72 C 42.4 55.06 42.21 49.78 40.76 45.15 C 38.12 44.83 34.86 44.02 32.5 42.03 C 31.32 41.04 30.6 39.79 30.17 38.49 C 28.49 33.41 33.42 28.48 38.5 30.16 C 39.8 30.59 41.05 31.32 42.04 32.49 C 44.03 34.85 44.84 38.11 45.16 40.75 C 49.78 42.2 55.07 42.39 57.73 37.29 C 58.61 35.59 60.91 35.27 62.22 36.66 C 68.38 43.19 81.78 59.21 88.04 80.6 Z" stroke-linecap="round"/>
  </g>
  <g transform="matrix(0.8503130630342405 0 0 0.8503130630342406 0.05101878378201263 0.004251565315172456)">
    <path style="stroke:none;fill:rgb(234,173,24);fill-rule:nonzero;opacity:1;" transform="translate(-108.6,-108.55)" d="M 127.64 62.23 C 125.91 45.65 137.62 38.02 137.62 38.02 C 137.62 38.02 140.55 51.69 127.64 62.23 Z M 79.47 179.08 C 92.38 168.53 89.45 154.87 89.45 154.87 C 89.45 154.87 77.74 162.5 79.47 179.08 Z M 154.81 89.25 C 171.4 90.92 178.99 79.19 178.99 79.19 C 178.99 79.19 165.31 76.3 154.81 89.25 Z M 38.13 137.82 C 54.72 139.49 62.31 127.76 62.31 127.76 C 62.31 127.76 48.63 124.87 38.13 137.82 Z M 179.13 137.56 C 179.13 137.56 171.5 125.85 154.92 127.58 C 165.47 140.49 179.13 137.56 179.13 137.56 Z M 38.07 79.41 C 48.62 92.32 62.28 89.39 62.28 89.39 C 62.28 89.39 54.65 77.68 38.07 79.41 Z M 127.89 154.76 C 126.22 171.35 137.95 178.94 137.95 178.94 C 137.95 178.94 140.84 165.26 127.89 154.76 Z M 89.39 62.25 C 89.39 62.25 92.28 48.57 79.33 38.07 C 77.66 54.66 89.39 62.25 89.39 62.25 Z" stroke-linecap="round"/>
  </g>
  <g transform="matrix(0.8503130630342405 0 0 0.8503130630342406 0.0015190192667660085 18.71824784743569)">
    <path style="stroke:none;fill:rgb(72,165,12);fill-rule:nonzero;opacity:1;" transform="translate(-108.54178642353372,-130.55836032712685)" d="M 142.11 111.45 C 144.35 121.32 140.66 131.89 133.63 139.13 C 123.7 149.64 107.06 152.66 93.99 146.57 C 85.12 142.62 77.92 134.51 75.4 125.17 C 74.18 120.69 73.93 115.93 74.98 111.44 C 75.98 115.69 77.46 119.73 79.66 123.4 C 89.93 141.24 113.88 146 129.69 132.57 C 136.06 127.33 140.32 119.57 142.12 111.43 Z" stroke-linecap="round"/>
  </g>
</g>
</g>
<g transform="matrix(1.9211538461538462 0 0 1.9211538461538462 758.4103519072725 481.77351749840386)" id="text-logo">
<g style="" paint-order="stroke">
  <g transform="matrix(1 0 0 1 -5.684342e-14 0)" id="text-logo-path-0">
    <path style="stroke:rgb(255,255,255);stroke-width:0;fill:rgb(53,125,5);fill-rule:nonzero;opacity:1;" transform="translate(-201.74499999999998,18.155)" d="M 4.23 -10.11 L 4.23 -10.11 L 4.23 -36.31 L 11.33 -36.31 L 11.33 -10.11 Q 11.33 -7.94 12.3 -7.13 Q 13.27 -6.33 15.81 -6.33 L 15.81 -6.33 L 26.62 -6.33 L 26.62 0 L 15.81 0 Q 9.71 0 6.97 -2.37 Q 4.23 -4.73 4.23 -10.11 Z M 44.26 -17.23 L 44.26 -17.23 L 44.26 -19.9 Q 44.26 -28.34 47.71 -32.47 Q 51.16 -36.61 58.68 -36.61 L 58.68 -36.61 Q 66.1 -36.61 69.61 -32.44 Q 73.12 -28.26 73.12 -19.85 L 73.12 -19.85 L 73.12 -17.08 Q 73.12 -7.92 69.67 -3.81 Q 66.23 0.3 58.68 0.3 L 58.68 0.3 Q 51.03 0.3 47.65 -3.81 Q 44.26 -7.92 44.26 -17.23 Z M 51.36 -19.13 L 51.36 -17.23 Q 51.38 -15.81 51.42 -14.84 Q 51.46 -13.87 51.63 -12.6 Q 51.81 -11.33 52.09 -10.47 Q 52.38 -9.61 52.93 -8.7 Q 53.48 -7.79 54.23 -7.26 Q 54.99 -6.72 56.11 -6.38 Q 57.24 -6.03 58.68 -6.03 L 58.68 -6.03 Q 60.07 -6.03 61.18 -6.36 Q 62.29 -6.7 63.05 -7.25 Q 63.81 -7.79 64.37 -8.67 Q 64.93 -9.54 65.24 -10.43 Q 65.55 -11.33 65.74 -12.55 Q 65.93 -13.77 65.98 -14.82 Q 66.03 -15.86 66.03 -17.23 L 66.03 -17.23 L 66.03 -19.13 Q 66.03 -20.82 65.93 -22.09 Q 65.83 -23.36 65.57 -24.72 Q 65.3 -26.07 64.79 -27.02 Q 64.28 -27.97 63.49 -28.75 Q 62.69 -29.53 61.48 -29.92 Q 60.27 -30.31 58.68 -30.31 L 58.68 -30.31 Q 57.29 -30.31 56.19 -29.99 Q 55.09 -29.68 54.33 -29.16 Q 53.57 -28.64 53.03 -27.8 Q 52.48 -26.97 52.16 -26.09 Q 51.83 -25.2 51.66 -23.98 Q 51.48 -22.76 51.42 -21.67 Q 51.36 -20.57 51.36 -19.13 L 51.36 -19.13 Z M 100.33 -29.98 L 90.64 -29.98 L 90.64 -36.31 L 117.16 -36.31 L 117.16 -29.98 L 107.42 -29.98 L 107.42 0 L 100.33 0 L 100.33 -29.98 Z M 143.67 -29.98 L 133.98 -29.98 L 133.98 -36.31 L 160.5 -36.31 L 160.5 -29.98 L 150.76 -29.98 L 150.76 0 L 143.67 0 L 143.67 -29.98 Z M 184.17 0 L 176.77 0 L 188.4 -33.24 Q 189.17 -34.99 190.09 -35.65 Q 191.02 -36.31 192.41 -36.31 L 192.41 -36.31 Q 193.78 -36.31 194.64 -35.69 Q 195.5 -35.06 196.15 -33.24 L 196.15 -33.24 L 207.77 0 L 200.38 0 L 198.34 -6.28 L 186.16 -6.28 L 184.17 0 Z M 192.41 -26.62 L 187.93 -12.25 L 196.69 -12.25 L 192.41 -26.62 Z M 224.74 -16.06 L 224.74 -16.06 L 224.74 -19.13 Q 224.74 -22.24 225.13 -24.74 Q 225.51 -27.24 226.49 -29.51 Q 227.46 -31.78 229 -33.29 Q 230.54 -34.81 233 -35.71 Q 235.45 -36.61 238.66 -36.61 L 238.66 -36.61 Q 242.45 -36.61 245.35 -35.29 Q 248.25 -33.97 250.01 -31.13 Q 251.76 -28.29 251.76 -24.23 L 251.76 -24.23 L 245.14 -24.23 Q 244.59 -27.27 243.16 -28.79 Q 241.73 -30.31 238.66 -30.31 L 238.66 -30.31 Q 237.59 -30.31 236.7 -30.09 Q 235.8 -29.88 235.14 -29.56 Q 234.48 -29.24 233.96 -28.66 Q 233.43 -28.09 233.08 -27.54 Q 232.74 -26.99 232.5 -26.15 Q 232.26 -25.3 232.14 -24.63 Q 232.01 -23.96 231.94 -22.92 Q 231.86 -21.89 231.85 -21.17 Q 231.84 -20.44 231.84 -19.32 L 231.84 -19.32 L 231.84 -16.16 Q 231.84 -14.92 231.88 -14.03 Q 231.91 -13.15 232.06 -12.02 Q 232.21 -10.88 232.5 -10.1 Q 232.79 -9.31 233.28 -8.49 Q 233.78 -7.67 234.49 -7.17 Q 235.2 -6.67 236.26 -6.35 Q 237.32 -6.03 238.66 -6.03 L 238.66 -6.03 Q 240.53 -6.03 241.8 -6.57 Q 243.07 -7.12 243.78 -8.27 Q 244.49 -9.41 244.83 -10.73 Q 245.16 -12.05 245.34 -14.07 L 245.34 -14.07 L 251.91 -14.07 Q 251.91 -7.12 248.45 -3.41 Q 244.99 0.3 238.66 0.3 L 238.66 0.3 Q 224.74 0.3 224.74 -16.06 Z M 269.93 -17.23 L 269.93 -17.23 L 269.93 -19.9 Q 269.93 -28.34 273.37 -32.47 Q 276.82 -36.61 284.34 -36.61 L 284.34 -36.61 Q 291.76 -36.61 295.28 -32.44 Q 298.79 -28.26 298.79 -19.85 L 298.79 -19.85 L 298.79 -17.08 Q 298.79 -7.92 295.34 -3.81 Q 291.89 0.3 284.34 0.3 L 284.34 0.3 Q 276.7 0.3 273.31 -3.81 Q 269.93 -7.92 269.93 -17.23 Z M 277.02 -19.13 L 277.02 -17.23 Q 277.05 -15.81 277.08 -14.84 Q 277.12 -13.87 277.3 -12.6 Q 277.47 -11.33 277.76 -10.47 Q 278.04 -9.61 278.59 -8.7 Q 279.14 -7.79 279.9 -7.26 Q 280.66 -6.72 281.78 -6.38 Q 282.9 -6.03 284.34 -6.03 L 284.34 -6.03 Q 285.74 -6.03 286.85 -6.36 Q 287.95 -6.7 288.71 -7.25 Q 289.47 -7.79 290.03 -8.67 Q 290.59 -9.54 290.91 -10.43 Q 291.22 -11.33 291.4 -12.55 Q 291.59 -13.77 291.64 -14.82 Q 291.69 -15.86 291.69 -17.23 L 291.69 -17.23 L 291.69 -19.13 Q 291.69 -20.82 291.59 -22.09 Q 291.49 -23.36 291.23 -24.72 Q 290.97 -26.07 290.46 -27.02 Q 289.95 -27.97 289.15 -28.75 Q 288.35 -29.53 287.15 -29.92 Q 285.94 -30.31 284.34 -30.31 L 284.34 -30.31 Q 282.95 -30.31 281.85 -29.99 Q 280.76 -29.68 280 -29.16 Q 279.24 -28.64 278.69 -27.8 Q 278.14 -26.97 277.82 -26.09 Q 277.5 -25.2 277.32 -23.98 Q 277.15 -22.76 277.08 -21.67 Q 277.02 -20.57 277.02 -19.13 L 277.02 -19.13 Z M 325.79 0 L 318.72 0 L 318.72 -36.31 L 325.69 -36.31 L 335.95 -15.34 L 346.14 -36.31 L 353.13 -36.31 L 353.13 0 L 346.04 0 L 346.04 -21.67 L 339.51 -7.89 Q 338.12 -5.15 335.95 -5.15 L 335.95 -5.15 Q 333.86 -5.15 332.42 -8.07 L 332.42 -8.07 L 325.79 -21.67 L 325.79 0 Z M 371.97 -11.53 L 371.97 -11.53 L 378.39 -11.83 Q 378.39 -10.41 379.09 -9.25 Q 379.79 -8.09 380.91 -7.42 Q 382.03 -6.75 383.33 -6.39 Q 384.62 -6.03 385.94 -6.03 L 385.94 -6.03 Q 389.08 -6.03 390.7 -7.17 Q 392.31 -8.32 392.31 -10.51 L 392.31 -10.51 Q 392.31 -12.35 391.17 -13.45 Q 390.02 -14.54 387.98 -14.84 L 387.98 -14.84 L 382.08 -15.46 Q 377.62 -16.11 375.03 -18.61 Q 372.44 -21.12 372.44 -25.6 L 372.44 -25.6 Q 372.44 -30.51 376.17 -33.56 Q 379.89 -36.61 386.11 -36.61 L 386.11 -36.61 Q 391.27 -36.61 394.73 -33.74 Q 398.19 -30.88 398.19 -26.32 L 398.19 -26.32 L 391.87 -26 Q 391.62 -27.27 390.98 -28.19 Q 390.35 -29.11 389.49 -29.57 Q 388.63 -30.03 387.75 -30.24 Q 386.86 -30.46 385.89 -30.46 L 385.89 -30.46 Q 382.8 -30.46 381.03 -29.14 Q 379.27 -27.82 379.27 -25.85 L 379.27 -25.85 Q 379.27 -24.16 380.55 -23.12 Q 381.83 -22.09 383.7 -21.84 L 383.7 -21.84 L 389.53 -21.22 Q 399.26 -19.87 399.26 -10.71 L 399.26 -10.71 Q 399.26 -7.27 397.48 -4.74 Q 395.7 -2.22 392.69 -0.96 Q 389.68 0.3 385.84 0.3 L 385.84 0.3 Q 384.1 0.3 382.28 -0.07 Q 380.46 -0.45 378.58 -1.34 Q 376.7 -2.24 375.26 -3.55 Q 373.81 -4.86 372.89 -6.92 Q 371.97 -8.99 371.97 -11.53 Z" stroke-linecap="round"/>
  </g>
</g>
</g>
<g transform="matrix(1.9211538461538462 0 0 1.9211538461538462 769.2379392851162 570.2455699280932)" id="tagline-logo">
<g style="" paint-order="stroke">
  <g transform="matrix(1 0 0 1 0 0)">
    <path style="stroke:rgb(255,255,255);stroke-width:0;fill:rgb(236,179,42);fill-rule:nonzero;opacity:1;" transform="translate(-203.39,6.74)" d="M 4.48 0 L 1.54 0 L 1.54 -13.04 L 4.48 -13.04 L 4.48 0 Z M 23.66 0 L 20.7 0 L 20.7 -10.56 L 17.12 -10.56 L 17.12 -13.04 L 27.24 -13.04 L 27.24 -10.56 L 23.66 -10.56 L 23.66 0 Z M 42.14 -7.08 L 40.54 -7.08 L 39.96 -11.06 L 39.86 -13.72 L 42.82 -13.72 L 42.72 -11.06 L 42.14 -7.08 Z M 60.26 0.24 Q 58.98 0.24 57.7 -0.24 Q 56.42 -0.72 55.44 -1.64 L 57.12 -3.66 Q 57.82 -3.06 58.68 -2.68 Q 59.54 -2.3 60.34 -2.3 Q 62.16 -2.3 62.16 -3.56 Q 62.16 -4.18 61.65 -4.47 Q 61.14 -4.76 60.28 -5.12 L 58.58 -5.84 Q 57.58 -6.24 56.77 -7.11 Q 55.96 -7.98 55.96 -9.4 Q 55.96 -11.02 57.26 -12.15 Q 58.56 -13.28 60.6 -13.28 Q 61.72 -13.28 62.84 -12.84 Q 63.96 -12.4 64.8 -11.56 L 63.3 -9.7 Q 62.66 -10.2 62.02 -10.47 Q 61.38 -10.74 60.6 -10.74 Q 59.84 -10.74 59.39 -10.43 Q 58.94 -10.12 58.94 -9.56 Q 58.94 -8.96 59.51 -8.66 Q 60.08 -8.36 60.92 -8.02 L 62.6 -7.34 Q 63.78 -6.86 64.48 -6.02 Q 65.18 -5.18 65.18 -3.8 Q 65.18 -2.18 63.89 -0.97 Q 62.6 0.24 60.26 0.24 Z M 98.1 0 L 95.14 0 L 95.14 -10.56 L 91.56 -10.56 L 91.56 -13.04 L 101.68 -13.04 L 101.68 -10.56 L 98.1 -10.56 L 98.1 0 Z M 117.26 0 L 114.32 0 L 114.32 -13.04 L 117.26 -13.04 L 117.26 -8.02 L 121.76 -8.02 L 121.76 -13.04 L 124.72 -13.04 L 124.72 0 L 121.76 0 L 121.76 -5.44 L 117.26 -5.44 L 117.26 0 Z M 146.76 0 L 138.4 0 L 138.4 -13.04 L 146.56 -13.04 L 146.56 -10.56 L 141.34 -10.56 L 141.34 -7.94 L 145.78 -7.94 L 145.78 -5.48 L 141.34 -5.48 L 141.34 -2.48 L 146.76 -2.48 L 146.76 0 Z M 180 0.24 Q 178.34 0.24 176.97 -0.52 Q 175.6 -1.28 174.77 -2.76 Q 173.94 -4.24 173.94 -6.44 Q 173.94 -8.6 174.79 -10.13 Q 175.64 -11.66 177.05 -12.47 Q 178.46 -13.28 180.1 -13.28 Q 181.36 -13.28 182.36 -12.77 Q 183.36 -12.26 184.02 -11.58 L 182.46 -9.7 Q 181.96 -10.16 181.41 -10.45 Q 180.86 -10.74 180.16 -10.74 Q 178.82 -10.74 177.89 -9.62 Q 176.96 -8.5 176.96 -6.54 Q 176.96 -4.52 177.82 -3.41 Q 178.68 -2.3 180.12 -2.3 Q 180.92 -2.3 181.55 -2.65 Q 182.18 -3 182.66 -3.52 L 184.22 -1.68 Q 182.58 0.24 180 0.24 Z M 201.36 0.24 Q 198.72 0.24 197.08 -1.57 Q 195.44 -3.38 195.44 -6.58 Q 195.44 -9.78 197.08 -11.53 Q 198.72 -13.28 201.36 -13.28 Q 204 -13.28 205.64 -11.52 Q 207.28 -9.76 207.28 -6.58 Q 207.28 -3.38 205.64 -1.57 Q 204 0.24 201.36 0.24 Z M 201.36 -2.3 Q 202.7 -2.3 203.48 -3.46 Q 204.26 -4.62 204.26 -6.58 Q 204.26 -8.52 203.48 -9.63 Q 202.7 -10.74 201.36 -10.74 Q 200.02 -10.74 199.24 -9.63 Q 198.46 -8.52 198.46 -6.58 Q 198.46 -4.62 199.24 -3.46 Q 200.02 -2.3 201.36 -2.3 Z M 222.98 0 L 220.34 0 L 220.34 -13.04 L 223.56 -13.04 L 225.66 -7.24 Q 225.86 -6.68 226.04 -6.06 Q 226.22 -5.44 226.42 -4.84 L 226.5 -4.84 Q 226.7 -5.44 226.87 -6.06 Q 227.04 -6.68 227.24 -7.24 L 229.3 -13.04 L 232.5 -13.04 L 232.5 0 L 229.82 0 L 229.82 -4.78 Q 229.82 -5.74 229.96 -7.01 Q 230.1 -8.28 230.2 -9.22 L 230.12 -9.22 L 229.06 -6.12 L 227.2 -1.14 L 225.58 -1.14 L 223.72 -6.12 L 222.68 -9.22 L 222.6 -9.22 Q 222.7 -8.28 222.84 -7.01 Q 222.98 -5.74 222.98 -4.78 L 222.98 0 Z M 248.82 0 L 246.18 0 L 246.18 -13.04 L 249.4 -13.04 L 251.5 -7.24 Q 251.7 -6.68 251.88 -6.06 Q 252.06 -5.44 252.26 -4.84 L 252.34 -4.84 Q 252.54 -5.44 252.71 -6.06 Q 252.88 -6.68 253.08 -7.24 L 255.14 -13.04 L 258.34 -13.04 L 258.34 0 L 255.66 0 L 255.66 -4.78 Q 255.66 -5.74 255.8 -7.01 Q 255.94 -8.28 256.04 -9.22 L 255.96 -9.22 L 254.9 -6.12 L 253.04 -1.14 L 251.42 -1.14 L 249.56 -6.12 L 248.52 -9.22 L 248.44 -9.22 Q 248.54 -8.28 248.68 -7.01 Q 248.82 -5.74 248.82 -4.78 L 248.82 0 Z M 277.16 0.24 Q 274.62 0.24 273.28 -1.26 Q 271.94 -2.76 271.94 -6.04 L 271.94 -13.04 L 274.9 -13.04 L 274.9 -5.74 Q 274.9 -3.82 275.48 -3.06 Q 276.06 -2.3 277.16 -2.3 Q 278.26 -2.3 278.86 -3.06 Q 279.46 -3.82 279.46 -5.74 L 279.46 -13.04 L 282.3 -13.04 L 282.3 -6.04 Q 282.3 -2.76 280.99 -1.26 Q 279.68 0.24 277.16 0.24 Z M 298.72 0 L 295.92 0 L 295.92 -13.04 L 298.94 -13.04 L 302.34 -6.56 L 303.62 -3.68 L 303.7 -3.68 Q 303.62 -4.72 303.48 -6 Q 303.34 -7.28 303.34 -8.44 L 303.34 -13.04 L 306.14 -13.04 L 306.14 0 L 303.12 0 L 299.72 -6.5 L 298.44 -9.34 L 298.36 -9.34 Q 298.46 -8.26 298.59 -7.02 Q 298.72 -5.78 298.72 -4.62 L 298.72 0 Z M 322.76 0 L 319.82 0 L 319.82 -13.04 L 322.76 -13.04 L 322.76 0 Z M 341.94 0 L 338.98 0 L 338.98 -10.56 L 335.4 -10.56 L 335.4 -13.04 L 345.52 -13.04 L 345.52 -10.56 L 341.94 -10.56 L 341.94 0 Z M 361.1 0 L 358.16 0 L 358.16 -13.04 L 361.1 -13.04 L 361.1 0 Z M 383.14 0 L 374.78 0 L 374.78 -13.04 L 382.94 -13.04 L 382.94 -10.56 L 377.72 -10.56 L 377.72 -7.94 L 382.16 -7.94 L 382.16 -5.48 L 377.72 -5.48 L 377.72 -2.48 L 383.14 -2.48 L 383.14 0 Z M 400.32 0.24 Q 399.04 0.24 397.76 -0.24 Q 396.48 -0.72 395.5 -1.64 L 397.18 -3.66 Q 397.88 -3.06 398.74 -2.68 Q 399.6 -2.3 400.4 -2.3 Q 402.22 -2.3 402.22 -3.56 Q 402.22 -4.18 401.71 -4.47 Q 401.2 -4.76 400.34 -5.12 L 398.64 -5.84 Q 397.64 -6.24 396.83 -7.11 Q 396.02 -7.98 396.02 -9.4 Q 396.02 -11.02 397.32 -12.15 Q 398.62 -13.28 400.66 -13.28 Q 401.78 -13.28 402.9 -12.84 Q 404.02 -12.4 404.86 -11.56 L 403.36 -9.7 Q 402.72 -10.2 402.08 -10.47 Q 401.44 -10.74 400.66 -10.74 Q 399.9 -10.74 399.45 -10.43 Q 399 -10.12 399 -9.56 Q 399 -8.96 399.57 -8.66 Q 400.14 -8.36 400.98 -8.02 L 402.66 -7.34 Q 403.84 -6.86 404.54 -6.02 Q 405.24 -5.18 405.24 -3.8 Q 405.24 -2.18 403.95 -0.97 Q 402.66 0.24 400.32 0.24 Z" stroke-linecap="round"/>
  </g>
</g>
</g>
<g transform="matrix(1.9211538461538462 0 0 1.9211538461538462 211.89404792512966 511.12123695354245)" id="logo-L">
<g style="" paint-order="stroke">
  <g transform="matrix(1 0 0 1 0 0)">
    <path style="stroke:none;fill:rgb(53,125,5);fill-rule:nonzero;opacity:1;" transform="translate(-6.710000000000001,7.825)" d="M 11.57 0 L 1.85 0 L 1.85 -15.65 L 5.38 -15.65 L 5.38 -2.98 L 11.57 -2.98 L 11.57 0 Z" stroke-linecap="round"/>
  </g>
</g>
</g>
</svg>
